<svg xmlns="http://www.w3.org/2000/svg" viewBox="0 0 854 1842" width="854" height="1842" aria-hidden="true">
  <g id="BICEPS" data-muscle="BICEPS" fill="#ffffff">
    <path d="M 581 454 L 576 479 L 576 508 L 583 547 L 593 577 L 607 608 L 621 628 L 630 630 L 638 618 L 642 591 L 641 557 L 635 526 L 628 506 L 616 485 L 597 465 Z"/>
    <path d="M 266 454 L 248 467 L 229 488 L 219 506 L 211 528 L 206 554 L 204 586 L 207 614 L 211 625 L 216 630 L 224 629 L 234 618 L 250 586 L 261 556 L 271 504 L 271 478 Z"/>
  </g>
</svg>