<svg xmlns="http://www.w3.org/2000/svg" viewBox="0 0 854 1842" width="854" height="1842" aria-hidden="true">
  <g id="TRICEPS" data-muscle="TRICEPS" fill="#ffffff">
    <path d="M 582 439 L 576 455 L 574 476 L 583 517 L 621 620 L 625 610 L 625 595 L 617 530 L 621 530 L 631 593 L 631 613 L 636 617 L 640 617 L 647 610 L 648 602 L 652 598 L 651 560 L 641 515 L 633 493 L 619 469 L 600 450 Z"/>
    <path d="M 271 439 L 245 456 L 229 475 L 216 501 L 209 522 L 201 561 L 200 597 L 205 611 L 214 618 L 221 614 L 222 589 L 232 530 L 236 530 L 228 594 L 228 613 L 231 620 L 270 516 L 279 477 L 278 459 Z"/>
  </g>
</svg>