<svg xmlns="http://www.w3.org/2000/svg" viewBox="0 0 854 1840" width="854" height="1840" aria-hidden="true">
  <g id="BICEPS" data-muscle="BICEPS" fill="#ffffff">
    <path d="M 606 452 L 599 481 L 598 514 L 607 563 L 616 589 L 629 611 L 643 625 L 652 629 L 658 629 L 669 617 L 676 592 L 677 556 L 673 531 L 662 504 L 649 486 L 631 469 Z"/>
    <path d="M 247 452 L 226 466 L 206 484 L 191 505 L 181 529 L 175 572 L 177 598 L 185 621 L 196 630 L 204 628 L 211 623 L 225 607 L 236 587 L 243 567 L 250 539 L 254 503 L 253 479 Z"/>
  </g>
</svg>