<svg xmlns="http://www.w3.org/2000/svg" viewBox="0 0 32 32" width="32" height="32">
  <!-- FORMA brand mark (docs/logo.svg): the gradient "F" mark on the dark
       card surface so it stays legible in both light and dark browser tabs
       (the gradient fill alone is too low-contrast against a white tab).
       The mark is nested as its own square viewBox->78x110 mapping so it
       keeps the source artwork's portrait aspect ratio instead of being
       stretched to fill the 32x32 favicon canvas. -->
  <rect width="32" height="32" rx="7" fill="#161f1a" />
  <svg x="7.5" y="4" width="17" height="24" viewBox="0 0 78 110">
    <g transform="matrix(1,0,0,1,-28.587134,-8.897738)">
      <g id="Logotipo-F" transform="matrix(0.194325,0,0,0.225556,3.559968,-1.179117)">
        <g transform="matrix(2.264452,0,0,2.229288,-279.061526,-269.637259)">
          <path
            d="M180.656,359.136L180.111,196.25C180.111,183.98 195.621,145.369 237.441,141.392L332.811,140.993C347.811,140.993 355.815,141.044 355.815,156.044C355.815,169.044 328.026,199.421 313.026,199.421C313.026,199.421 268.258,198.224 260.68,199.464C243.899,202.208 238.689,210.473 236.067,227.702L235.597,302.444L180.656,359.136Z"
            style="fill:url(#_Radial1);fill-rule:nonzero;"
          />
        </g>
        <g transform="matrix(1.98962,0,0,2.30397,-202.559993,-383.033903)">
          <path
            d="M229.64,269.499L310.831,269.277C320.658,271.201 328.144,273.012 325.558,286.088C324.129,293.313 299.773,320.581 284.773,320.581L166.797,320.998C169.714,317.285 200.53,293.189 229.64,269.499Z"
            style="fill:url(#_Radial2);fill-rule:nonzero;"
          />
        </g>
        <g transform="matrix(5.146024,0,0,4.433498,-146.970277,-145.511306)">
          <path
            d="M53.717,113.006L78.038,113.132L77.994,124.118L53.835,152.569L53.717,113.006Z"
            style="fill:url(#_Radial3);"
          />
        </g>
      </g>
    </g>
    <defs>
      <radialGradient id="_Radial1" cx="0" cy="0" r="1" gradientUnits="userSpaceOnUse" gradientTransform="matrix(175,-220,220,175,180,360)"><stop offset="0" style="stop-color:rgb(17,121,93);stop-opacity:1"/><stop offset="0.3" style="stop-color:rgb(12,139,100);stop-opacity:1"/><stop offset="0.67" style="stop-color:rgb(0,184,116);stop-opacity:1"/><stop offset="1" style="stop-color:rgb(156,255,87);stop-opacity:1"/></radialGradient>
      <radialGradient id="_Radial2" cx="0" cy="0" r="1" gradientUnits="userSpaceOnUse" gradientTransform="matrix(145,0,0,145,180,295)"><stop offset="0" style="stop-color:rgb(9,103,97);stop-opacity:1"/><stop offset="0.3" style="stop-color:rgb(17,136,114);stop-opacity:1"/><stop offset="0.62" style="stop-color:rgb(47,176,128);stop-opacity:1"/><stop offset="1" style="stop-color:rgb(156,255,87);stop-opacity:1"/></radialGradient>
      <radialGradient id="_Radial3" cx="0" cy="0" r="1" gradientUnits="userSpaceOnUse" gradientTransform="matrix(24.321434,0,0,39.563302,53.716597,132.78732)"><stop offset="0" style="stop-color:rgb(4,98,88);stop-opacity:1"/><stop offset="1" style="stop-color:rgb(35,157,111);stop-opacity:1"/></radialGradient>
    </defs>
  </svg>
</svg>
